Coordinates
version=1
nRows=16
nColumns=63
inDegrees=yes

Units are S.I. units (second, meters, Newtons, ...)
If the header above contains a line with 'inDegrees', this indicates whether rotational values are in degrees (yes) or radians (no).

endheader
time	pelvis_tilt	pelvis_list	pelvis_rotation	pelvis_tx	pelvis_ty	pelvis_tz	hip_flexion_r	hip_adduction_r	hip_rotation_r	knee_angle_r	knee_angle_r_beta	ankle_angle_r	subtalar_angle_r	mtp_angle_r	hip_flexion_l	hip_adduction_l	hip_rotation_l	knee_angle_l	knee_angle_l_beta	ankle_angle_l	subtalar_angle_l	mtp_angle_l	L5_S1_Flex_Ext	L5_S1_Lat_Bending	L5_S1_axial_rotation	L4_L5_Flex_Ext	L4_L5_Lat_Bending	L4_L5_axial_rotation	L3_L4_Flex_Ext	L3_L4_Lat_Bending	L3_L4_axial_rotation	L2_L3_Flex_Ext	L2_L3_Lat_Bending	L2_L3_axial_rotation	L1_L2_Flex_Ext	L1_L2_Lat_Bending	L1_L2_axial_rotation	L1_T12_Flex_Ext	L1_T12_Lat_Bending	L1_T12_axial_rotation	Abs_r3	Abs_r2	Abs_r1	Abs_t1	Abs_t2	neck_flexion	neck_bending	neck_rotation	arm_flex_r	arm_add_r	arm_rot_r	elbow_flex_r	pro_sup_r	wrist_flex_r	wrist_dev_r	arm_flex_l	arm_add_l	arm_rot_l	elbow_flex_l	pro_sup_l	wrist_flex_l	wrist_dev_l
0.000000	2.253868	-8.167179	89.266618	0.161947	0.685041	0.815606	-8.409042	1.850544	4.958723	7.524991	0.131336	27.506586	-13.535090	0.000000	-12.468910	-2.004949	6.845405	0.568548	0.009923	24.951715	-8.649534	0.000000	-0.242387	0.271181	-0.140114	-0.450137	0.360670	-0.148871	-0.398218	0.659348	-0.148871	-0.277024	0.659348	-0.122599	-0.225081	0.552991	-0.113842	-0.138500	0.420059	-0.105085	-1.731348	3.067648	-0.779270	0.000000	0.000000	13.741458	-0.328490	-1.473358	26.916617	-13.571822	53.535258	49.676181	81.868006	35.503178	26.731758	27.017279	-15.667101	56.451024	58.147341	88.644007	21.960032	18.578804
0.017857	2.621002	-8.150065	90.267066	0.159824	0.685393	0.815373	-8.451987	2.332297	2.970877	7.321501	0.127784	27.843863	-11.880838	0.000000	-12.405904	-2.556088	7.510193	0.470070	0.008204	25.125756	-7.951136	0.000000	-0.240886	0.334951	-0.312556	-0.447349	0.445485	-0.332090	-0.395751	0.814400	-0.332090	-0.275308	0.814400	-0.273486	-0.223687	0.683033	-0.253952	-0.137642	0.518839	-0.234417	-1.720623	3.789035	-1.738341	0.000000	0.000000	14.141607	-1.030413	-1.710756	27.246775	-13.451161	54.581093	49.398437	81.335665	36.954264	28.055512	26.614732	-15.072302	55.453958	57.149123	88.310807	21.390726	17.870557
0.035714	2.900876	-8.118136	91.055528	0.158151	0.685692	0.815109	-8.523518	2.703180	1.416141	7.165031	0.125053	28.076130	-10.588940	0.000000	-12.378525	-2.979081	7.903742	0.402910	0.007032	25.256736	-7.268294	0.000000	-0.240605	0.384154	-0.452219	-0.446828	0.510925	-0.480483	-0.395290	0.934033	-0.480483	-0.274988	0.934033	-0.395692	-0.223426	0.783367	-0.367428	-0.137482	0.595055	-0.339164	-1.718620	4.345630	-2.515106	0.000000	0.000000	14.387191	-1.560267	-1.859209	27.581371	-13.305146	55.469232	49.183849	81.049731	38.149169	29.127892	26.408765	-14.635051	54.899969	56.342656	88.050457	21.059762	17.410171
0.053571	3.101414	-8.074816	91.652919	0.156882	0.685939	0.814823	-8.617898	2.973316	0.253971	7.051344	0.123069	28.215755	-9.626224	0.000000	-12.380849	-3.285663	8.058612	0.363982	0.006353	25.348989	-6.606494	0.000000	-0.241347	0.420087	-0.561954	-0.448206	0.558715	-0.597076	-0.396509	1.021399	-0.597076	-0.275836	1.021399	-0.491709	-0.224115	0.856641	-0.456587	-0.137906	0.650715	-0.421465	-1.723918	4.752106	-3.125418	0.000000	0.000000	14.498035	-1.935490	-1.932112	27.914796	-13.139717	56.207093	49.030995	80.982875	39.101830	29.973097	26.376152	-14.338128	54.732360	55.712387	87.857076	20.946407	17.179774
0.071429	3.230541	-8.023531	92.080153	0.155974	0.686135	0.814526	-8.729389	3.152827	-0.556178	6.976203	0.121758	28.275104	-8.959517	0.000000	-12.406954	-3.487570	8.007361	0.350199	0.006112	25.406850	-5.971224	0.000000	-0.242913	0.444046	-0.644610	-0.451113	0.590581	-0.684898	-0.399081	1.079654	-0.684898	-0.277625	1.079654	-0.564034	-0.225569	0.905499	-0.523746	-0.138800	0.687827	-0.483457	-1.735100	5.023138	-3.585127	0.000000	0.000000	14.493968	-2.173522	-1.942856	28.241443	-12.960813	56.802095	48.938449	81.107769	39.826182	30.615326	26.493668	-14.164312	54.894432	55.242763	87.724787	21.029931	17.161493
0.089286	3.296184	-7.967706	92.358147	0.155380	0.686279	0.814227	-8.852256	3.251837	-1.054850	6.935374	0.121045	28.266545	-8.555647	0.000000	-12.450917	-3.596537	7.782550	0.358473	0.006257	25.434652	-5.367970	0.000000	-0.245103	0.457329	-0.703038	-0.455180	0.608248	-0.746978	-0.402679	1.111950	-0.746978	-0.280128	1.111950	-0.615158	-0.227602	0.932586	-0.571218	-0.140052	0.708403	-0.527278	-1.750745	5.173401	-3.910086	0.000000	0.000000	14.394817	-2.291803	-1.904835	28.555703	-12.774373	57.261658	48.904788	81.397087	40.336161	31.078778	26.738088	-14.096385	55.329486	54.918232	87.647711	21.289601	17.337453
0.107143	3.306268	-7.910765	92.507815	0.155056	0.686371	0.813935	-8.980761	3.280467	-1.282588	6.924618	0.120857	28.202448	-8.381442	0.000000	-12.506815	-3.624298	7.416737	0.385717	0.006732	25.436729	-4.802219	0.000000	-0.247719	0.461234	-0.740088	-0.460039	0.613441	-0.786343	-0.406978	1.121443	-0.786343	-0.283118	1.121443	-0.647577	-0.230032	0.940548	-0.601321	-0.141547	0.714451	-0.555066	-1.769434	5.217566	-4.116146	0.000000	0.000000	14.220408	-2.307774	-1.831442	28.851967	-12.586338	57.593198	48.928588	81.823498	40.645703	31.387651	27.086186	-14.117126	55.980825	54.723242	87.619969	21.704685	17.689783
0.125000	3.268717	-7.856132	92.550073	0.154956	0.686412	0.813659	-9.109168	3.248841	-1.279937	6.939701	0.121121	28.095178	-8.403728	0.000000	-12.568725	-3.582589	6.942481	0.428846	0.007485	25.417416	-4.279459	0.000000	-0.250563	0.457056	-0.758610	-0.465321	0.607885	-0.806023	-0.411650	1.111286	-0.806023	-0.286369	1.111286	-0.663784	-0.232673	0.932029	-0.616370	-0.143172	0.707980	-0.568957	-1.789748	5.170310	-4.219160	0.000000	0.000000	13.990569	-2.238873	-1.736069	29.124629	-12.402648	57.804136	49.008424	82.359675	40.768744	31.566145	27.514738	-14.209315	56.791751	54.642239	87.635682	22.254453	18.200610
0.142857	3.191458	-7.807233	92.505835	0.155035	0.686402	0.813411	-9.231739	3.167081	-1.087439	6.976386	0.121761	27.957103	-8.589334	0.000000	-12.630724	-3.483146	6.392342	0.484771	0.008461	25.381045	-3.805176	0.000000	-0.253436	0.446094	-0.761454	-0.470656	0.593305	-0.809045	-0.416370	1.084633	-0.809045	-0.289652	1.084633	-0.666272	-0.235341	0.909675	-0.618681	-0.144813	0.691000	-0.571091	-1.810267	5.046306	-4.234979	0.000000	0.000000	13.725128	-2.102541	-1.632109	29.368079	-12.229242	57.901889	49.142872	82.978291	40.719219	31.638457	28.000519	-14.355734	57.705563	54.659673	87.688971	22.918173	18.852060
0.160714	3.082417	-7.767493	92.396018	0.155248	0.686342	0.813199	-9.342738	3.045309	-0.745640	7.030436	0.122704	27.800592	-8.905087	0.000000	-12.686890	-3.337702	5.798879	0.550407	0.009606	25.331951	-3.384857	0.000000	-0.256139	0.429645	-0.751471	-0.475675	0.571428	-0.798438	-0.420810	1.044638	-0.798438	-0.292741	1.044638	-0.657537	-0.237850	0.876132	-0.610570	-0.146358	0.665520	-0.563603	-1.829573	4.860228	-4.179455	0.000000	0.000000	13.443911	-1.916218	-1.532955	29.576709	-12.072060	57.893877	49.330509	83.652016	40.511065	31.628787	28.520303	-14.539161	58.665566	54.759989	87.773957	23.675112	19.626261
0.178571	2.949518	-7.740336	92.241535	0.155550	0.686230	0.813032	-9.436428	2.893650	-0.295084	7.097616	0.123877	27.638012	-9.317814	0.000000	-12.731298	-3.157994	5.194651	0.622666	0.010868	25.274468	-3.023990	0.000000	-0.258473	0.409005	-0.731510	-0.480010	0.543977	-0.777230	-0.424645	0.994456	-0.777230	-0.295409	0.994456	-0.640071	-0.240018	0.834044	-0.594352	-0.147691	0.633549	-0.548633	-1.846245	4.626750	-4.068441	0.000000	0.000000	13.166746	-1.697344	-1.451999	29.744912	-11.937042	57.787518	49.569909	84.353523	40.158217	31.561333	29.050865	-14.742378	59.615059	54.927636	87.884762	24.504539	20.505339
0.196429	2.800500	-7.737102	92.093598	0.155853	0.686072	0.812964	-9.486919	2.718872	0.074886	7.184143	0.125387	27.535581	-9.610638	0.000000	-12.733118	-2.961455	4.736537	0.707575	0.012350	25.231038	-2.796563	0.000000	-0.259584	0.384917	-0.706571	-0.482074	0.511940	-0.750732	-0.426471	0.935888	-0.750732	-0.296679	0.935888	-0.618250	-0.241050	0.784923	-0.574089	-0.148326	0.596237	-0.529929	-1.854184	4.354262	-3.929738	0.000000	0.000000	12.954524	-1.492923	-1.511961	29.840569	-11.864232	57.660897	49.893465	84.774113	39.355033	31.342913	29.674858	-14.891662	60.582448	54.987647	87.973731	25.913010	21.670477
0.214286	2.655983	-7.757856	91.980305	0.156092	0.685840	0.812969	-9.506103	2.554734	0.454764	7.265195	0.126802	27.468757	-9.953722	0.000000	-12.712832	-2.774073	4.326206	0.781142	0.013633	25.175330	-2.595961	0.000000	-0.260297	0.361230	-0.681063	-0.483397	0.480436	-0.723629	-0.427642	0.878294	-0.723629	-0.297493	0.878294	-0.595930	-0.241712	0.736620	-0.553364	-0.148734	0.559545	-0.510797	-1.859274	4.086304	-3.787868	0.000000	0.000000	12.798386	-1.299155	-1.592892	29.899748	-11.800649	57.350776	50.254179	85.397112	38.736669	31.357824	30.220643	-15.032117	61.275286	55.164660	88.187480	27.409047	23.025949
0.232143	2.492185	-7.817121	91.851266	0.156355	0.685532	0.813060	-9.472412	2.374211	0.935604	7.340798	0.128121	27.433476	-10.397414	0.000000	-12.655474	-2.560194	4.000603	0.847897	0.014799	25.088653	-2.542695	0.000000	-0.258661	0.334871	-0.644821	-0.480359	0.445378	-0.685123	-0.424953	0.814205	-0.685123	-0.295623	0.814205	-0.564219	-0.240192	0.682869	-0.523917	-0.147799	0.518715	-0.483616	-1.847587	3.788127	-3.586303	0.000000	0.000000	12.716214	-1.103190	-1.682671	29.904641	-11.800085	56.978528	50.693322	86.050392	38.031033	31.371642	30.670799	-15.209554	61.777004	55.471993	88.494889	28.623625	24.239109
0.250000	2.367973	-7.905012	91.804669	0.156376	0.685168	0.813211	-9.406909	2.238898	1.332160	7.386535	0.128919	27.428359	-10.806103	0.000000	-12.558371	-2.395646	3.764835	0.907691	0.015842	25.031135	-2.474641	0.000000	-0.256142	0.314929	-0.616780	-0.475680	0.418856	-0.655329	-0.420815	0.765718	-0.655329	-0.292744	0.765718	-0.539682	-0.237853	0.642203	-0.501134	-0.146359	0.487825	-0.462585	-1.829593	3.562539	-3.430344	0.000000	0.000000	12.747431	-1.008983	-1.880880	29.839961	-11.828708	56.400593	51.201446	87.411397	37.805170	31.490662	30.866063	-15.259985	61.649226	55.804590	88.919917	29.816537	25.453980
0.267857	2.251878	-8.028175	91.781484	0.156294	0.684748	0.813411	-9.299374	2.115972	1.760886	7.405806	0.129256	27.428822	-11.287260	0.000000	-12.423945	-2.238727	3.658007	0.953092	0.016635	24.981980	-2.519470	0.000000	-0.251366	0.296916	-0.592246	-0.466811	0.394899	-0.629261	-0.412969	0.721923	-0.629261	-0.287286	0.721923	-0.518215	-0.233418	0.605472	-0.481200	-0.143630	0.459924	-0.444184	-1.795481	3.358778	-3.293894	0.000000	0.000000	12.895066	-0.961394	-2.103069	29.665614	-11.896097	55.648588	51.763036	88.993653	37.742224	31.648159	30.830746	-15.274579	61.099347	56.238481	89.121795	30.546653	26.604277
